<svg width="32" height="32" viewBox="0 0 32 32" fill="none" xmlns="http://www.w3.org/2000/svg">
<path d="M15.4987 20.5002L9 24.265V10.77C9 9.92785 9.00075 9.35538 9.03633 8.91262C9.071 8.48124 9.13386 8.26024 9.21091 8.10604C9.4045 7.71862 9.71862 7.4045 10.106 7.21091C10.2602 7.13386 10.4812 7.071 10.9126 7.03633C11.3554 7.00075 11.9279 7 12.77 7H19.23C20.0721 7 20.6446 7.00075 21.0874 7.03633C21.5188 7.071 21.7398 7.13386 21.894 7.21091C22.2814 7.4045 22.5955 7.71862 22.7891 8.10604C22.8661 8.26024 22.929 8.48124 22.9637 8.91262C22.9992 9.35538 23 9.92785 23 10.77V24.265L16.5013 20.5002L16 20.2098L15.4987 20.5002Z"  stroke="white" stroke-width="2"/>
</svg>
